<svg width="122" height="25" fill="none" xmlns="http://www.w3.org/2000/svg"><path fill="#000" d="M0 0h122v25H0z"/><path d="M14.54 11.312h1.824a3.453 3.453 0 00-.408-1.32 3.103 3.103 0 00-.828-.96 3.47 3.47 0 00-1.128-.6 4.26 4.26 0 00-1.332-.204c-.656 0-1.248.116-1.776.348a3.8 3.8 0 00-1.32.96 4.27 4.27 0 00-.828 1.44 5.301 5.301 0 00-.288 1.776c0 .624.096 1.208.288 1.752.192.536.468 1.004.828 1.404.36.4.8.716 1.32.948.528.224 1.12.336 1.776.336a4.22 4.22 0 001.452-.24c.44-.16.824-.392 1.152-.696.328-.304.592-.672.792-1.104.2-.432.324-.916.372-1.452h-1.824c-.072.576-.272 1.04-.6 1.392-.32.352-.768.528-1.344.528-.424 0-.784-.08-1.08-.24a2.116 2.116 0 01-.72-.66 2.945 2.945 0 01-.408-.912 4.912 4.912 0 010-2.148c.088-.352.224-.664.408-.936.184-.28.424-.5.72-.66.296-.168.656-.252 1.08-.252.232 0 .452.04.66.12a1.822 1.822 0 01.996.792c.112.176.184.372.216.588zm3.003-.516V17h1.704v-2.796c0-.28.027-.54.084-.78.056-.24.148-.448.276-.624.136-.184.312-.328.527-.432.216-.104.48-.156.793-.156.104 0 .212.008.323.024.113.008.209.02.288.036v-1.584c-.136-.04-.26-.06-.372-.06-.215 0-.424.032-.623.096-.2.064-.389.156-.564.276a1.94 1.94 0 00-.468.42c-.136.16-.244.336-.325.528h-.023v-1.152h-1.62zm8.629 2.436H23.4a2.2 2.2 0 01.072-.408c.048-.152.124-.296.228-.432.112-.136.256-.248.432-.336.184-.096.412-.144.684-.144.416 0 .724.112.924.336.208.224.352.552.432.984zm-2.772 1.08h4.476a4.38 4.38 0 00-.12-1.38 3.318 3.318 0 00-.552-1.176 2.645 2.645 0 00-.96-.816c-.392-.208-.852-.312-1.38-.312-.472 0-.904.084-1.296.252-.384.168-.716.4-.996.696-.28.288-.496.632-.648 1.032-.152.4-.228.832-.228 1.296 0 .48.072.92.216 1.32.152.4.364.744.636 1.032.272.288.604.512.996.672.392.152.832.228 1.32.228.704 0 1.304-.16 1.8-.48.496-.32.864-.852 1.104-1.596h-1.5c-.056.192-.208.376-.456.552a1.545 1.545 0 01-.888.252c-.48 0-.848-.124-1.104-.372-.256-.248-.396-.648-.42-1.2zm5.414-1.608c.024-.4.124-.732.3-.996s.4-.476.672-.636c.272-.16.576-.272.912-.336a5.025 5.025 0 011.032-.108c.312 0 .628.024.948.072.32.04.612.124.876.252s.48.308.648.54c.168.224.252.524.252.9v3.228c0 .28.016.548.048.804s.088.448.168.576h-1.728a3.908 3.908 0 01-.084-.288 4.139 4.139 0 01-.036-.312 2.22 2.22 0 01-.96.588 3.853 3.853 0 01-1.128.168c-.296 0-.572-.036-.828-.108a1.896 1.896 0 01-.672-.336 1.622 1.622 0 01-.456-.576 2.012 2.012 0 01-.156-.828c0-.352.06-.64.18-.864.128-.232.288-.416.48-.552.2-.136.424-.236.672-.3.256-.072.512-.128.768-.168.256-.04.508-.072.756-.096.248-.024.468-.06.66-.108s.344-.116.456-.204c.112-.096.164-.232.156-.408 0-.184-.032-.328-.096-.432a.564.564 0 00-.24-.252.783.783 0 00-.348-.12 2.283 2.283 0 00-.42-.036c-.336 0-.6.072-.792.216-.192.144-.304.384-.336.72h-1.704zm3.936 1.26a.83.83 0 01-.276.156 4.852 4.852 0 01-.732.144 7.164 7.164 0 00-.408.06 3.367 3.367 0 00-.384.096c-.12.04-.228.096-.324.168a.739.739 0 00-.216.252.83.83 0 00-.084.396c0 .152.028.28.084.384a.692.692 0 00.228.252c.096.056.208.096.336.12.128.024.26.036.396.036.336 0 .596-.056.78-.168.184-.112.32-.244.408-.396.088-.16.14-.32.156-.48.024-.16.036-.288.036-.384v-.636zm5.187-3.168v-1.86h-1.704v1.86H35.2v1.14h1.032v3.66c0 .312.052.564.156.756.104.192.244.34.42.444.184.104.392.172.624.204.24.04.492.06.756.06.168 0 .34-.004.516-.012s.336-.024.48-.048v-1.32c-.08.016-.164.028-.252.036a3.05 3.05 0 01-.276.012c-.288 0-.48-.048-.576-.144-.096-.096-.144-.288-.144-.576v-3.072h1.248v-1.14h-1.248zm6.235 2.436H41.4a2.2 2.2 0 01.072-.408c.048-.152.124-.296.228-.432.112-.136.256-.248.432-.336.184-.096.412-.144.684-.144.416 0 .724.112.924.336.208.224.352.552.432.984zm-2.772 1.08h4.476a4.38 4.38 0 00-.12-1.38 3.318 3.318 0 00-.552-1.176 2.645 2.645 0 00-.96-.816c-.392-.208-.852-.312-1.38-.312-.472 0-.904.084-1.296.252-.384.168-.716.4-.996.696-.28.288-.496.632-.648 1.032-.152.4-.228.832-.228 1.296 0 .48.072.92.216 1.32.152.4.364.744.636 1.032.272.288.604.512.996.672.392.152.832.228 1.32.228.704 0 1.304-.16 1.8-.48.496-.32.864-.852 1.104-1.596h-1.5c-.056.192-.208.376-.456.552a1.545 1.545 0 01-.888.252c-.48 0-.848-.124-1.104-.372-.256-.248-.396-.648-.42-1.2zm8.754-1.608c.024-.4.124-.732.3-.996s.4-.476.672-.636c.272-.16.576-.272.912-.336a5.025 5.025 0 011.032-.108c.312 0 .628.024.948.072.32.04.612.124.876.252s.48.308.648.54c.168.224.252.524.252.9v3.228c0 .28.016.548.048.804s.088.448.168.576h-1.728a3.908 3.908 0 01-.084-.288 4.139 4.139 0 01-.036-.312 2.22 2.22 0 01-.96.588 3.853 3.853 0 01-1.128.168c-.296 0-.572-.036-.828-.108a1.896 1.896 0 01-.672-.336 1.622 1.622 0 01-.456-.576 2.012 2.012 0 01-.156-.828c0-.352.06-.64.18-.864.128-.232.288-.416.48-.552.2-.136.424-.236.672-.3.256-.072.512-.128.768-.168.256-.04.508-.072.756-.096.248-.024.468-.06.66-.108s.344-.116.456-.204c.112-.096.164-.232.156-.408 0-.184-.032-.328-.096-.432a.564.564 0 00-.24-.252.783.783 0 00-.348-.12 2.283 2.283 0 00-.42-.036c-.336 0-.6.072-.792.216-.192.144-.304.384-.336.72h-1.704zm3.936 1.26a.83.83 0 01-.276.156 4.852 4.852 0 01-.732.144 7.164 7.164 0 00-.408.06 3.367 3.367 0 00-.384.096c-.12.04-.228.096-.324.168a.739.739 0 00-.216.252.83.83 0 00-.084.396c0 .152.028.28.084.384a.692.692 0 00.228.252c.096.056.208.096.336.12.128.024.26.036.396.036.336 0 .596-.056.78-.168.184-.112.32-.244.408-.396.088-.16.14-.32.156-.48.024-.16.036-.288.036-.384v-.636zm8.443-3.948V17h1.884v-6.984h2.568V8.432h-7.02v1.584h2.568zm5.436 3.888c0-.248.024-.492.072-.732.048-.24.128-.452.24-.636.12-.184.276-.332.468-.444.192-.12.432-.18.72-.18s.528.06.72.18c.2.112.356.26.468.444.12.184.204.396.252.636a3.723 3.723 0 010 1.464 1.925 1.925 0 01-.252.636 1.25 1.25 0 01-.468.444c-.192.112-.432.168-.72.168s-.528-.056-.72-.168a1.382 1.382 0 01-.468-.444 2.095 2.095 0 01-.24-.636 3.723 3.723 0 01-.072-.732zm-1.704 0c0 .496.076.944.228 1.344.152.4.368.744.648 1.032.28.28.616.496 1.008.648.392.152.832.228 1.32.228.488 0 .928-.076 1.32-.228.4-.152.74-.368 1.02-.648.28-.288.496-.632.648-1.032.152-.4.228-.848.228-1.344a3.76 3.76 0 00-.228-1.344 2.836 2.836 0 00-.648-1.032 2.776 2.776 0 00-1.02-.66 3.465 3.465 0 00-1.32-.24c-.488 0-.928.08-1.32.24a2.836 2.836 0 00-1.656 1.692 3.76 3.76 0 00-.228 1.344zm11.931-.024c0 .256-.023.504-.072.744-.047.24-.127.456-.24.648a1.277 1.277 0 01-.456.444c-.183.112-.415.168-.695.168-.264 0-.493-.056-.684-.168a1.692 1.692 0 01-.469-.456 2.123 2.123 0 01-.263-.648 3.16 3.16 0 01-.084-.72c0-.256.023-.5.072-.732.055-.24.14-.452.251-.636.12-.184.276-.332.469-.444.191-.112.427-.168.707-.168.28 0 .513.056.697.168.183.112.331.26.444.444.12.176.203.384.251.624.049.232.073.476.073.732zm.025 2.328V17h1.62V8.432h-1.704v3.12h-.025a1.784 1.784 0 00-.791-.684 2.35 2.35 0 00-1.044-.24c-.457 0-.856.092-1.2.276a2.57 2.57 0 00-.864.708c-.224.296-.396.64-.516 1.032a4.264 4.264 0 00-.169 1.2c0 .432.056.848.168 1.248.12.4.293.756.517 1.068.232.304.524.548.876.732.352.176.76.264 1.224.264.407 0 .772-.072 1.091-.216.329-.152.593-.396.793-.732h.023zm4.42-2.304c0-.248.023-.492.072-.732.047-.24.128-.452.24-.636.12-.184.275-.332.468-.444.191-.12.431-.18.72-.18.287 0 .527.06.72.18.2.112.355.26.468.444.12.184.204.396.252.636a3.723 3.723 0 010 1.464 1.925 1.925 0 01-.252.636 1.25 1.25 0 01-.468.444c-.193.112-.433.168-.72.168-.288 0-.529-.056-.72-.168a1.382 1.382 0 01-.469-.444 2.095 2.095 0 01-.24-.636 3.723 3.723 0 01-.072-.732zm-1.705 0c0 .496.076.944.228 1.344.153.4.368.744.648 1.032.28.28.617.496 1.008.648.393.152.833.228 1.32.228.489 0 .928-.076 1.32-.228.4-.152.74-.368 1.02-.648.28-.288.496-.632.648-1.032.153-.4.228-.848.228-1.344a3.76 3.76 0 00-.227-1.344 2.836 2.836 0 00-.648-1.032 2.776 2.776 0 00-1.02-.66 3.465 3.465 0 00-1.32-.24c-.489 0-.928.08-1.32.24a2.836 2.836 0 00-1.656 1.692 3.76 3.76 0 00-.229 1.344zm11.048-5.472V17h6.06v-1.584h-4.176V8.432h-1.884zm8.686 1.404V8.432h-1.704v1.404h1.704zm-1.704.96V17h1.704v-6.204h-1.704zm4.365 4.188h-1.62c.016.416.108.764.276 1.044.176.272.396.492.66.66.272.168.58.288.924.36a5.14 5.14 0 002.088 0c.344-.064.648-.18.912-.348.264-.168.476-.388.636-.66.168-.28.252-.624.252-1.032 0-.288-.056-.528-.168-.72-.112-.2-.26-.364-.444-.492a2.267 2.267 0 00-.636-.324 6.804 6.804 0 00-.72-.204c-.24-.056-.476-.108-.708-.156-.232-.048-.44-.1-.624-.156a1.385 1.385 0 01-.432-.24.467.467 0 01-.168-.372c0-.128.032-.228.096-.3.064-.08.14-.14.228-.18.096-.04.2-.064.312-.072.112-.016.216-.024.312-.024.304 0 .568.06.792.18.224.112.348.332.372.66h1.62c-.032-.384-.132-.7-.3-.948a1.864 1.864 0 00-.612-.612 2.586 2.586 0 00-.852-.324 5.005 5.005 0 00-1.956 0 2.53 2.53 0 00-.864.312 1.724 1.724 0 00-.624.6c-.152.256-.228.584-.228.984 0 .272.056.504.168.696.112.184.26.34.444.468.184.12.392.22.624.3.24.072.484.136.732.192.608.128 1.08.256 1.416.384.344.128.516.32.516.576 0 .152-.036.28-.108.384a.894.894 0 01-.276.24 1.464 1.464 0 01-.732.168 2.02 2.02 0 01-.492-.06c-.152-.04-.288-.1-.408-.18a1.16 1.16 0 01-.3-.324 1.012 1.012 0 01-.108-.48zm7.286-4.188v-1.86h-1.704v1.86h-1.032v1.14h1.032v3.66c0 .312.052.564.156.756.104.192.244.34.42.444.184.104.392.172.624.204.24.04.492.06.756.06.168 0 .34-.004.516-.012s.336-.024.48-.048v-1.32c-.08.016-.164.028-.252.036a3.05 3.05 0 01-.276.012c-.288 0-.48-.048-.576-.144-.096-.096-.144-.288-.144-.576v-3.072h1.248v-1.14h-1.248z" fill="#fff"/></svg>