<svg width="122" height="25" viewBox="0 0 122 25" fill="none" xmlns="http://www.w3.org/2000/svg">
<rect width="122" height="25" fill="black"/>
<path d="M14.54 11.312H16.364C16.308 10.816 16.172 10.376 15.956 9.992C15.74 9.608 15.464 9.288 15.128 9.032C14.8 8.768 14.424 8.568 14 8.432C13.584 8.296 13.14 8.228 12.668 8.228C12.012 8.228 11.42 8.344 10.892 8.576C10.372 8.808 9.932 9.128 9.572 9.536C9.212 9.944 8.936 10.424 8.744 10.976C8.552 11.52 8.456 12.112 8.456 12.752C8.456 13.376 8.552 13.96 8.744 14.504C8.936 15.04 9.212 15.508 9.572 15.908C9.932 16.308 10.372 16.624 10.892 16.856C11.42 17.08 12.012 17.192 12.668 17.192C13.196 17.192 13.68 17.112 14.12 16.952C14.56 16.792 14.944 16.56 15.272 16.256C15.6 15.952 15.864 15.584 16.064 15.152C16.264 14.72 16.388 14.236 16.436 13.7H14.612C14.54 14.276 14.34 14.74 14.012 15.092C13.692 15.444 13.244 15.62 12.668 15.62C12.244 15.62 11.884 15.54 11.588 15.38C11.292 15.212 11.052 14.992 10.868 14.72C10.684 14.448 10.548 14.144 10.46 13.808C10.38 13.464 10.34 13.112 10.34 12.752C10.34 12.376 10.38 12.012 10.46 11.66C10.548 11.308 10.684 10.996 10.868 10.724C11.052 10.444 11.292 10.224 11.588 10.064C11.884 9.896 12.244 9.812 12.668 9.812C12.9 9.812 13.12 9.852 13.328 9.932C13.544 10.004 13.736 10.108 13.904 10.244C14.072 10.38 14.212 10.54 14.324 10.724C14.436 10.9 14.508 11.096 14.54 11.312ZM17.5425 10.796V17H19.2465V14.204C19.2465 13.924 19.2745 13.664 19.3305 13.424C19.3865 13.184 19.4785 12.976 19.6065 12.8C19.7425 12.616 19.9185 12.472 20.1345 12.368C20.3505 12.264 20.6145 12.212 20.9265 12.212C21.0305 12.212 21.1385 12.22 21.2505 12.236C21.3625 12.244 21.4585 12.256 21.5385 12.272V10.688C21.4025 10.648 21.2785 10.628 21.1665 10.628C20.9505 10.628 20.7425 10.66 20.5425 10.724C20.3425 10.788 20.1545 10.88 19.9785 11C19.8025 11.112 19.6465 11.252 19.5105 11.42C19.3745 11.58 19.2665 11.756 19.1865 11.948H19.1625V10.796H17.5425ZM26.1717 13.232H23.3997C23.4077 13.112 23.4317 12.976 23.4717 12.824C23.5197 12.672 23.5957 12.528 23.6997 12.392C23.8117 12.256 23.9557 12.144 24.1317 12.056C24.3157 11.96 24.5437 11.912 24.8157 11.912C25.2317 11.912 25.5397 12.024 25.7397 12.248C25.9477 12.472 26.0917 12.8 26.1717 13.232ZM23.3997 14.312H27.8757C27.9077 13.832 27.8677 13.372 27.7557 12.932C27.6437 12.492 27.4597 12.1 27.2037 11.756C26.9557 11.412 26.6357 11.14 26.2437 10.94C25.8517 10.732 25.3917 10.628 24.8637 10.628C24.3917 10.628 23.9597 10.712 23.5677 10.88C23.1837 11.048 22.8517 11.28 22.5717 11.576C22.2917 11.864 22.0757 12.208 21.9237 12.608C21.7717 13.008 21.6957 13.44 21.6957 13.904C21.6957 14.384 21.7677 14.824 21.9117 15.224C22.0637 15.624 22.2757 15.968 22.5477 16.256C22.8197 16.544 23.1517 16.768 23.5437 16.928C23.9357 17.08 24.3757 17.156 24.8637 17.156C25.5677 17.156 26.1677 16.996 26.6637 16.676C27.1597 16.356 27.5277 15.824 27.7677 15.08H26.2677C26.2117 15.272 26.0597 15.456 25.8117 15.632C25.5637 15.8 25.2677 15.884 24.9237 15.884C24.4437 15.884 24.0757 15.76 23.8197 15.512C23.5637 15.264 23.4237 14.864 23.3997 14.312ZM28.8143 12.704C28.8383 12.304 28.9383 11.972 29.1143 11.708C29.2903 11.444 29.5143 11.232 29.7863 11.072C30.0583 10.912 30.3623 10.8 30.6983 10.736C31.0423 10.664 31.3863 10.628 31.7303 10.628C32.0423 10.628 32.3583 10.652 32.6783 10.7C32.9983 10.74 33.2903 10.824 33.5543 10.952C33.8183 11.08 34.0343 11.26 34.2023 11.492C34.3703 11.716 34.4543 12.016 34.4543 12.392V15.62C34.4543 15.9 34.4703 16.168 34.5023 16.424C34.5343 16.68 34.5903 16.872 34.6703 17H32.9423C32.9103 16.904 32.8823 16.808 32.8583 16.712C32.8423 16.608 32.8303 16.504 32.8223 16.4C32.5503 16.68 32.2303 16.876 31.8623 16.988C31.4943 17.1 31.1183 17.156 30.7343 17.156C30.4383 17.156 30.1623 17.12 29.9063 17.048C29.6503 16.976 29.4263 16.864 29.2343 16.712C29.0423 16.56 28.8903 16.368 28.7783 16.136C28.6743 15.904 28.6223 15.628 28.6223 15.308C28.6223 14.956 28.6823 14.668 28.8023 14.444C28.9303 14.212 29.0903 14.028 29.2823 13.892C29.4823 13.756 29.7063 13.656 29.9543 13.592C30.2103 13.52 30.4663 13.464 30.7223 13.424C30.9783 13.384 31.2303 13.352 31.4783 13.328C31.7263 13.304 31.9463 13.268 32.1383 13.22C32.3303 13.172 32.4823 13.104 32.5943 13.016C32.7063 12.92 32.7583 12.784 32.7503 12.608C32.7503 12.424 32.7183 12.28 32.6543 12.176C32.5983 12.064 32.5183 11.98 32.4143 11.924C32.3183 11.86 32.2023 11.82 32.0663 11.804C31.9383 11.78 31.7983 11.768 31.6463 11.768C31.3103 11.768 31.0463 11.84 30.8543 11.984C30.6623 12.128 30.5503 12.368 30.5183 12.704H28.8143ZM32.7503 13.964C32.6783 14.028 32.5863 14.08 32.4743 14.12C32.3703 14.152 32.2543 14.18 32.1263 14.204C32.0063 14.228 31.8783 14.248 31.7423 14.264C31.6063 14.28 31.4703 14.3 31.3343 14.324C31.2063 14.348 31.0783 14.38 30.9503 14.42C30.8303 14.46 30.7223 14.516 30.6263 14.588C30.5383 14.652 30.4663 14.736 30.4103 14.84C30.3543 14.944 30.3263 15.076 30.3263 15.236C30.3263 15.388 30.3543 15.516 30.4103 15.62C30.4663 15.724 30.5423 15.808 30.6383 15.872C30.7343 15.928 30.8463 15.968 30.9743 15.992C31.1023 16.016 31.2343 16.028 31.3703 16.028C31.7063 16.028 31.9663 15.972 32.1503 15.86C32.3343 15.748 32.4703 15.616 32.5583 15.464C32.6463 15.304 32.6983 15.144 32.7143 14.984C32.7383 14.824 32.7503 14.696 32.7503 14.6V13.964ZM37.9369 10.796V8.936H36.2329V10.796H35.2009V11.936H36.2329V15.596C36.2329 15.908 36.2849 16.16 36.3889 16.352C36.4929 16.544 36.6329 16.692 36.8089 16.796C36.9929 16.9 37.2009 16.968 37.4329 17C37.6729 17.04 37.9249 17.06 38.1889 17.06C38.3569 17.06 38.5289 17.056 38.7049 17.048C38.8809 17.04 39.0409 17.024 39.1849 17V15.68C39.1049 15.696 39.0209 15.708 38.9329 15.716C38.8449 15.724 38.7529 15.728 38.6569 15.728C38.3689 15.728 38.1769 15.68 38.0809 15.584C37.9849 15.488 37.9369 15.296 37.9369 15.008V11.936H39.1849V10.796H37.9369ZM44.1717 13.232H41.3997C41.4077 13.112 41.4317 12.976 41.4717 12.824C41.5197 12.672 41.5957 12.528 41.6997 12.392C41.8117 12.256 41.9557 12.144 42.1317 12.056C42.3157 11.96 42.5437 11.912 42.8157 11.912C43.2317 11.912 43.5397 12.024 43.7397 12.248C43.9477 12.472 44.0917 12.8 44.1717 13.232ZM41.3997 14.312H45.8757C45.9077 13.832 45.8677 13.372 45.7557 12.932C45.6437 12.492 45.4597 12.1 45.2037 11.756C44.9557 11.412 44.6357 11.14 44.2437 10.94C43.8517 10.732 43.3917 10.628 42.8637 10.628C42.3917 10.628 41.9597 10.712 41.5677 10.88C41.1837 11.048 40.8517 11.28 40.5717 11.576C40.2917 11.864 40.0757 12.208 39.9237 12.608C39.7717 13.008 39.6957 13.44 39.6957 13.904C39.6957 14.384 39.7677 14.824 39.9117 15.224C40.0637 15.624 40.2757 15.968 40.5477 16.256C40.8197 16.544 41.1517 16.768 41.5437 16.928C41.9357 17.08 42.3757 17.156 42.8637 17.156C43.5677 17.156 44.1677 16.996 44.6637 16.676C45.1597 16.356 45.5277 15.824 45.7677 15.08H44.2677C44.2117 15.272 44.0597 15.456 43.8117 15.632C43.5637 15.8 43.2677 15.884 42.9237 15.884C42.4437 15.884 42.0757 15.76 41.8197 15.512C41.5637 15.264 41.4237 14.864 41.3997 14.312ZM50.1541 12.704C50.1781 12.304 50.2781 11.972 50.4541 11.708C50.6301 11.444 50.8541 11.232 51.1261 11.072C51.3981 10.912 51.7021 10.8 52.0381 10.736C52.3821 10.664 52.7261 10.628 53.0701 10.628C53.3821 10.628 53.6981 10.652 54.0181 10.7C54.3381 10.74 54.6301 10.824 54.8941 10.952C55.1581 11.08 55.3741 11.26 55.5421 11.492C55.7101 11.716 55.7941 12.016 55.7941 12.392V15.62C55.7941 15.9 55.8101 16.168 55.8421 16.424C55.8741 16.68 55.9301 16.872 56.0101 17H54.2821C54.2501 16.904 54.2221 16.808 54.1981 16.712C54.1821 16.608 54.1701 16.504 54.1621 16.4C53.8901 16.68 53.5701 16.876 53.2021 16.988C52.8341 17.1 52.4581 17.156 52.0741 17.156C51.7781 17.156 51.5021 17.12 51.2461 17.048C50.9901 16.976 50.7661 16.864 50.5741 16.712C50.3821 16.56 50.2301 16.368 50.1181 16.136C50.0141 15.904 49.9621 15.628 49.9621 15.308C49.9621 14.956 50.0221 14.668 50.1421 14.444C50.2701 14.212 50.4301 14.028 50.6221 13.892C50.8221 13.756 51.0461 13.656 51.2941 13.592C51.5501 13.52 51.8061 13.464 52.0621 13.424C52.3181 13.384 52.5701 13.352 52.8181 13.328C53.0661 13.304 53.2861 13.268 53.4781 13.22C53.6701 13.172 53.8221 13.104 53.9341 13.016C54.0461 12.92 54.0981 12.784 54.0901 12.608C54.0901 12.424 54.0581 12.28 53.9941 12.176C53.9381 12.064 53.8581 11.98 53.7541 11.924C53.6581 11.86 53.5421 11.82 53.4061 11.804C53.2781 11.78 53.1381 11.768 52.9861 11.768C52.6501 11.768 52.3861 11.84 52.1941 11.984C52.0021 12.128 51.8901 12.368 51.8581 12.704H50.1541ZM54.0901 13.964C54.0181 14.028 53.9261 14.08 53.8141 14.12C53.7101 14.152 53.5941 14.18 53.4661 14.204C53.3461 14.228 53.2181 14.248 53.0821 14.264C52.9461 14.28 52.8101 14.3 52.6741 14.324C52.5461 14.348 52.4181 14.38 52.2901 14.42C52.1701 14.46 52.0621 14.516 51.9661 14.588C51.8781 14.652 51.8061 14.736 51.7501 14.84C51.6941 14.944 51.6661 15.076 51.6661 15.236C51.6661 15.388 51.6941 15.516 51.7501 15.62C51.8061 15.724 51.8821 15.808 51.9781 15.872C52.0741 15.928 52.1861 15.968 52.3141 15.992C52.4421 16.016 52.5741 16.028 52.7101 16.028C53.0461 16.028 53.3061 15.972 53.4901 15.86C53.6741 15.748 53.8101 15.616 53.8981 15.464C53.9861 15.304 54.0381 15.144 54.0541 14.984C54.0781 14.824 54.0901 14.696 54.0901 14.6V13.964ZM62.5326 10.016V17H64.4166V10.016H66.9846V8.432H59.9646V10.016H62.5326ZM67.9686 13.904C67.9686 13.656 67.9926 13.412 68.0406 13.172C68.0886 12.932 68.1686 12.72 68.2806 12.536C68.4006 12.352 68.5566 12.204 68.7486 12.092C68.9406 11.972 69.1806 11.912 69.4686 11.912C69.7566 11.912 69.9966 11.972 70.1886 12.092C70.3886 12.204 70.5446 12.352 70.6566 12.536C70.7766 12.72 70.8606 12.932 70.9086 13.172C70.9566 13.412 70.9806 13.656 70.9806 13.904C70.9806 14.152 70.9566 14.396 70.9086 14.636C70.8606 14.868 70.7766 15.08 70.6566 15.272C70.5446 15.456 70.3886 15.604 70.1886 15.716C69.9966 15.828 69.7566 15.884 69.4686 15.884C69.1806 15.884 68.9406 15.828 68.7486 15.716C68.5566 15.604 68.4006 15.456 68.2806 15.272C68.1686 15.08 68.0886 14.868 68.0406 14.636C67.9926 14.396 67.9686 14.152 67.9686 13.904ZM66.2646 13.904C66.2646 14.4 66.3406 14.848 66.4926 15.248C66.6446 15.648 66.8606 15.992 67.1406 16.28C67.4206 16.56 67.7566 16.776 68.1486 16.928C68.5406 17.08 68.9806 17.156 69.4686 17.156C69.9566 17.156 70.3966 17.08 70.7886 16.928C71.1886 16.776 71.5286 16.56 71.8086 16.28C72.0886 15.992 72.3046 15.648 72.4566 15.248C72.6086 14.848 72.6846 14.4 72.6846 13.904C72.6846 13.408 72.6086 12.96 72.4566 12.56C72.3046 12.152 72.0886 11.808 71.8086 11.528C71.5286 11.24 71.1886 11.02 70.7886 10.868C70.3966 10.708 69.9566 10.628 69.4686 10.628C68.9806 10.628 68.5406 10.708 68.1486 10.868C67.7566 11.02 67.4206 11.24 67.1406 11.528C66.8606 11.808 66.6446 12.152 66.4926 12.56C66.3406 12.96 66.2646 13.408 66.2646 13.904ZM78.1965 13.88C78.1965 14.136 78.1725 14.384 78.1245 14.624C78.0765 14.864 77.9965 15.08 77.8845 15.272C77.7725 15.456 77.6205 15.604 77.4285 15.716C77.2445 15.828 77.0125 15.884 76.7325 15.884C76.4685 15.884 76.2405 15.828 76.0485 15.716C75.8645 15.596 75.7085 15.444 75.5805 15.26C75.4605 15.068 75.3725 14.852 75.3165 14.612C75.2605 14.372 75.2325 14.132 75.2325 13.892C75.2325 13.636 75.2565 13.392 75.3045 13.16C75.3605 12.92 75.4445 12.708 75.5565 12.524C75.6765 12.34 75.8325 12.192 76.0245 12.08C76.2165 11.968 76.4525 11.912 76.7325 11.912C77.0125 11.912 77.2445 11.968 77.4285 12.08C77.6125 12.192 77.7605 12.34 77.8725 12.524C77.9925 12.7 78.0765 12.908 78.1245 13.148C78.1725 13.38 78.1965 13.624 78.1965 13.88ZM78.2205 16.208V17H79.8405V8.432H78.1365V11.552H78.1125C77.9205 11.248 77.6565 11.02 77.3205 10.868C76.9925 10.708 76.6445 10.628 76.2765 10.628C75.8205 10.628 75.4205 10.72 75.0765 10.904C74.7325 11.08 74.4445 11.316 74.2125 11.612C73.9885 11.908 73.8165 12.252 73.6965 12.644C73.5845 13.028 73.5285 13.428 73.5285 13.844C73.5285 14.276 73.5845 14.692 73.6965 15.092C73.8165 15.492 73.9885 15.848 74.2125 16.16C74.4445 16.464 74.7365 16.708 75.0885 16.892C75.4405 17.068 75.8485 17.156 76.3125 17.156C76.7205 17.156 77.0845 17.084 77.4045 16.94C77.7325 16.788 77.9965 16.544 78.1965 16.208H78.2205ZM82.6405 13.904C82.6405 13.656 82.6645 13.412 82.7125 13.172C82.7605 12.932 82.8405 12.72 82.9525 12.536C83.0725 12.352 83.2285 12.204 83.4205 12.092C83.6125 11.972 83.8525 11.912 84.1405 11.912C84.4285 11.912 84.6685 11.972 84.8605 12.092C85.0605 12.204 85.2165 12.352 85.3285 12.536C85.4485 12.72 85.5325 12.932 85.5805 13.172C85.6285 13.412 85.6525 13.656 85.6525 13.904C85.6525 14.152 85.6285 14.396 85.5805 14.636C85.5325 14.868 85.4485 15.08 85.3285 15.272C85.2165 15.456 85.0605 15.604 84.8605 15.716C84.6685 15.828 84.4285 15.884 84.1405 15.884C83.8525 15.884 83.6125 15.828 83.4205 15.716C83.2285 15.604 83.0725 15.456 82.9525 15.272C82.8405 15.08 82.7605 14.868 82.7125 14.636C82.6645 14.396 82.6405 14.152 82.6405 13.904ZM80.9365 13.904C80.9365 14.4 81.0125 14.848 81.1645 15.248C81.3165 15.648 81.5325 15.992 81.8125 16.28C82.0925 16.56 82.4285 16.776 82.8205 16.928C83.2125 17.08 83.6525 17.156 84.1405 17.156C84.6285 17.156 85.0685 17.08 85.4605 16.928C85.8605 16.776 86.2005 16.56 86.4805 16.28C86.7605 15.992 86.9765 15.648 87.1285 15.248C87.2805 14.848 87.3565 14.4 87.3565 13.904C87.3565 13.408 87.2805 12.96 87.1285 12.56C86.9765 12.152 86.7605 11.808 86.4805 11.528C86.2005 11.24 85.8605 11.02 85.4605 10.868C85.0685 10.708 84.6285 10.628 84.1405 10.628C83.6525 10.628 83.2125 10.708 82.8205 10.868C82.4285 11.02 82.0925 11.24 81.8125 11.528C81.5325 11.808 81.3165 12.152 81.1645 12.56C81.0125 12.96 80.9365 13.408 80.9365 13.904ZM91.9843 8.432V17H98.0443V15.416H93.8683V8.432H91.9843ZM100.67 9.836V8.432H98.9655V9.836H100.67ZM98.9655 10.796V17H100.67V10.796H98.9655ZM103.331 14.984H101.711C101.727 15.4 101.819 15.748 101.987 16.028C102.163 16.3 102.383 16.52 102.647 16.688C102.919 16.856 103.227 16.976 103.571 17.048C103.915 17.12 104.267 17.156 104.627 17.156C104.979 17.156 105.323 17.12 105.659 17.048C106.003 16.984 106.307 16.868 106.571 16.7C106.835 16.532 107.047 16.312 107.207 16.04C107.375 15.76 107.459 15.416 107.459 15.008C107.459 14.72 107.403 14.48 107.291 14.288C107.179 14.088 107.031 13.924 106.847 13.796C106.663 13.66 106.451 13.552 106.211 13.472C105.979 13.392 105.739 13.324 105.491 13.268C105.251 13.212 105.015 13.16 104.783 13.112C104.551 13.064 104.343 13.012 104.159 12.956C103.983 12.892 103.839 12.812 103.727 12.716C103.615 12.62 103.559 12.496 103.559 12.344C103.559 12.216 103.591 12.116 103.655 12.044C103.719 11.964 103.795 11.904 103.883 11.864C103.979 11.824 104.083 11.8 104.195 11.792C104.307 11.776 104.411 11.768 104.507 11.768C104.811 11.768 105.075 11.828 105.299 11.948C105.523 12.06 105.647 12.28 105.671 12.608H107.291C107.259 12.224 107.159 11.908 106.991 11.66C106.831 11.404 106.627 11.2 106.379 11.048C106.131 10.896 105.847 10.788 105.527 10.724C105.215 10.66 104.891 10.628 104.555 10.628C104.219 10.628 103.891 10.66 103.571 10.724C103.251 10.78 102.963 10.884 102.707 11.036C102.451 11.18 102.243 11.38 102.083 11.636C101.931 11.892 101.855 12.22 101.855 12.62C101.855 12.892 101.911 13.124 102.023 13.316C102.135 13.5 102.283 13.656 102.467 13.784C102.651 13.904 102.859 14.004 103.091 14.084C103.331 14.156 103.575 14.22 103.823 14.276C104.431 14.404 104.903 14.532 105.239 14.66C105.583 14.788 105.755 14.98 105.755 15.236C105.755 15.388 105.719 15.516 105.647 15.62C105.575 15.716 105.483 15.796 105.371 15.86C105.267 15.916 105.147 15.96 105.011 15.992C104.883 16.016 104.759 16.028 104.639 16.028C104.471 16.028 104.307 16.008 104.147 15.968C103.995 15.928 103.859 15.868 103.739 15.788C103.619 15.7 103.519 15.592 103.439 15.464C103.367 15.328 103.331 15.168 103.331 14.984ZM110.617 10.796V8.936H108.913V10.796H107.881V11.936H108.913V15.596C108.913 15.908 108.965 16.16 109.069 16.352C109.173 16.544 109.313 16.692 109.489 16.796C109.673 16.9 109.881 16.968 110.113 17C110.353 17.04 110.605 17.06 110.869 17.06C111.037 17.06 111.209 17.056 111.385 17.048C111.561 17.04 111.721 17.024 111.865 17V15.68C111.785 15.696 111.701 15.708 111.613 15.716C111.525 15.724 111.433 15.728 111.337 15.728C111.049 15.728 110.857 15.68 110.761 15.584C110.665 15.488 110.617 15.296 110.617 15.008V11.936H111.865V10.796H110.617Z" fill="white"/>
</svg>
